<svg width="51" height="110" viewBox="0 0 51 110" fill="none" xmlns="http://www.w3.org/2000/svg">
<path d="M8.59007 109C8.84428 106.248 10.0975 103.691 11.0153 101.11C12.4753 97.0054 12.8343 93.0664 12.8343 88.7459C12.8343 82.3614 12.0134 76.1711 11.1501 69.884C10.4303 64.6421 9.21667 59.3664 8.65744 54.1381C7.86119 46.6939 7.26154 36.221 10.1395 29.3425C13.4382 21.4586 17.1152 26.9748 18.2911 32.8895C19.0231 36.5713 20.4006 50.6166 14.9227 51.3867C9.74261 52.115 11.6216 35.2203 11.6216 32.0939C11.6216 21.7293 11.6216 11.3646 11.6216 1" stroke="white" stroke-linecap="round"/>
<path d="M8.56398 109.026C8.56398 107.671 9.28821 106.721 10.1343 105.695C11.3919 104.17 12.7481 102.866 14.35 101.722" stroke="white" stroke-linecap="round"/>
<path d="M8.46914 108.741C8.46914 107.273 8.57167 105.766 8.31632 104.315C8.05546 102.832 7.32916 101.815 6.28754 100.774" stroke="white" stroke-linecap="round"/>
<path d="M19.5502 92.7586C20.5928 92.6335 21.6302 92.8052 22.6723 92.8733C24.8778 93.0172 27.0959 92.9792 29.3045 93.0801C32.0944 93.2075 34.8678 93.3473 37.6481 93.6064" stroke="white" stroke-linecap="round"/>
<path d="M20.701 92.6379C24.0062 91.696 27.2144 90.5919 30.4216 89.359C32.5838 88.5279 35.1021 87.8754 36.5659 85.9485" stroke="white" stroke-linecap="round"/>
<path d="M30.8607 92.7824C30.3045 92.1354 30.2244 90.9234 30.0236 90.1247" stroke="white" stroke-linecap="round"/>
<path d="M19.5418 86.6867C23.7788 85.7471 28.109 85.5973 32.2907 84.3053C33.1416 84.0425 34.2436 83.6293 34.9391 83.0582C35.5015 82.5963 35.2432 82.0311 35.0912 81.4264" stroke="white" stroke-linecap="round"/>
<path d="M35.7668 82.1001C35.2402 80.7455 33.9601 79.5596 32.4516 79.5032C30.7444 79.4392 29.9994 80.3899 29.655 81.9499" stroke="white" stroke-linecap="round"/>
<path d="M28.4131 73.6574C28.2663 74.2482 28.5954 76.0843 29.1138 76.5182C29.7458 77.047 30.8105 76.5976 31.4816 76.4289C32.3856 76.2015 33.6583 76.0979 34.3994 75.4701C35.4803 74.5544 35.6368 71.3417 34.3439 70.4786C33.3768 69.8331 31.6562 70.0996 30.6974 70.5896C29.2014 71.3541 29.0346 72.6487 28.6915 74.0935" stroke="white" stroke-linecap="round"/>
<path d="M27.0953 67.746C28.5999 67.3676 30.1045 66.9893 31.6091 66.6109C32.9003 66.2862 35.0743 66.1193 35.0718 64.3528C35.0696 62.8086 33.7145 61.5162 32.3091 61.0826C30.6436 60.5687 28.5895 61.465 26.968 61.8727" stroke="white" stroke-linecap="round"/>
<path d="M27.484 61.9117C28.6642 62.1722 30.086 61.7192 31.2425 61.4633C32.3631 61.2152 33.4729 60.9117 34.5859 60.6318" stroke="white" stroke-linecap="round"/>
<path d="M18.7069 57.2013C22.8651 56.7846 26.9405 56.0305 31.0598 55.3696C32.1217 55.1992 34.0833 55.2912 34.8439 54.3523C35.5785 53.4456 35.1816 52.2658 34.93 51.2655" stroke="white" stroke-linecap="round"/>
<path d="M30.2957 57.6614C29.5966 56.5662 29.4741 54.8662 29.6154 53.6144" stroke="white" stroke-linecap="round"/>
<path d="M28.0106 41.1951C30.1396 40.7714 32.3138 40.619 34.4249 40.0881C34.5022 40.0687 34.7231 40.0124 34.6453 39.9952C34.3794 39.9365 34.1014 39.9697 33.8294 39.9567C32.482 39.8919 31.0923 39.7873 29.8203 39.2964C28.7502 38.8835 27.1143 37.0624 27.6723 35.7498C28.2457 34.401 30.868 33.4242 32.153 33.0669C33.8598 32.5924 32.2196 32.8818 31.2662 32.6713C29.5971 32.3029 27.9491 31.7136 27.5274 29.8809C27.2055 28.4822 28.8437 27.2095 29.8111 26.4383C30.6408 25.7769 31.5971 25.4534 32.5519 25.0367" stroke="white" stroke-linecap="round"/>
<path d="M28.3219 24.564C28.3291 23.3906 27.846 22.1205 27.5449 20.9983C27.337 20.2236 27.1362 19.1723 26.4879 18.6159C25.9368 18.1428 25.0688 18.0269 24.3716 18.0423C23.5461 18.0606 23.4388 18.49 23.5747 19.2428C23.6935 19.9007 23.9053 20.6443 24.5992 20.908C25.8223 21.3728 27.7382 20.9896 28.8612 20.4349C32.6239 18.5762 31.046 14.1899 30.7482 11.0224" stroke="white" stroke-linecap="round"/>
</svg>
