<svg width="249" height="123" viewBox="0 0 249 123" fill="none" xmlns="http://www.w3.org/2000/svg">
<path d="M24.139 17.224C23.9937 20.0164 23.0718 22.6601 22.42 25.3636C21.0405 31.085 20.1328 36.9219 18.8648 42.6711C17.2633 49.9332 15.6367 57.1465 13.6941 64.3237" stroke="white" stroke-width="2" stroke-linecap="round"/>
<path d="M23.933 20.2981C24.9031 29.3982 26.3425 38.3172 28.1206 47.2922C29.3193 53.3429 29.8874 60.2467 34.2781 64.9627" stroke="white" stroke-width="2" stroke-linecap="round"/>
<path d="M18.9389 46.8893C20.8893 45.7238 24.1055 46.0643 26.2925 45.9001" stroke="white" stroke-width="2" stroke-linecap="round"/>
<path d="M40.0743 19.9598C40.6149 31.5036 39.0409 42.9333 40.5314 54.492C40.8346 56.8438 41.4181 59.9231 42.6008 62.0073C43.557 63.6925 45.1573 63.2717 46.813 63.1474" stroke="white" stroke-width="2" stroke-linecap="round"/>
<path d="M44.7384 64.614C48.5318 63.8478 52.2248 61.0278 53.0581 57.0954C54.0013 52.645 51.8455 50.2585 47.9086 48.6463" stroke="white" stroke-width="2" stroke-linecap="round"/>
<path d="M70.2306 49.1546C68.7472 48.501 63.7801 48.5304 62.4063 49.6937C60.7316 51.1116 61.427 54.1092 61.565 55.9468C61.7509 58.4219 61.4446 61.8083 62.7552 64.0378C64.6669 67.2899 73.0251 69.1598 75.877 66.1595C78.0101 63.9154 78.0924 59.2798 77.2423 56.5415C75.9159 52.2691 72.5948 51.2434 68.9598 49.687" stroke="white" stroke-width="2" stroke-linecap="round"/>
<path d="M86.3394 48.382C86.6487 52.5016 86.9581 56.6212 87.2675 60.7407C87.533 64.2762 86.9833 70.0559 91.6193 70.8518C95.6719 71.5476 99.6783 68.5792 101.455 65.0885C103.559 60.9521 102.141 55.1555 101.807 50.7159" stroke="white" stroke-width="2" stroke-linecap="round"/>
<path d="M101.471 52.052C100.251 55.0304 100.794 58.9664 100.94 62.1171C101.082 65.17 101.374 68.2197 101.603 71.2672" stroke="white" stroke-width="2" stroke-linecap="round"/>
<path d="M117.816 31.1623C117.021 42.2618 117.149 53.2974 117.012 64.4056C116.976 67.2693 115.844 72.3743 117.962 74.7965C120.007 77.1358 123.283 76.6301 126.022 76.4245" stroke="white" stroke-width="2" stroke-linecap="round"/>
<path d="M111.345 61.36C114.536 60.0232 119.053 60.474 122.273 61.4133" stroke="white" stroke-width="2" stroke-linecap="round"/>
<path d="M155.587 62.8438C155.732 68.6223 155.144 74.396 155.578 80.1764C155.594 80.388 155.642 80.9931 155.722 80.7967C155.997 80.1258 156.036 79.3812 156.194 78.6737C156.976 75.1676 157.881 71.5689 159.747 68.4544C161.317 65.8344 166.838 62.3692 170.028 64.4296C173.307 66.5467 174.679 73.8708 175.032 77.4046C175.502 82.0983 175.488 77.6634 176.473 75.2574C178.198 71.0454 180.493 66.9892 185.493 66.7152C189.309 66.506 191.904 71.3824 193.488 74.2709C194.847 76.7481 195.261 79.4043 195.921 82.0987" stroke="white" stroke-width="2" stroke-linecap="round"/>
<path d="M199.082 71.2148C202.158 71.7669 205.71 71.0761 208.791 70.7958C210.918 70.6024 213.767 70.553 215.522 69.1048C217.013 67.8737 217.712 65.6488 217.988 63.8124C218.315 61.6382 217.237 61.1616 215.2 61.1764C213.42 61.1893 211.373 61.4072 210.366 63.1081C208.591 66.1061 208.726 71.3069 209.671 74.5054C212.839 85.2222 225.064 83.0744 233.51 83.732" stroke="white" stroke-width="2" stroke-linecap="round"/>
<path d="M6.93787 76.1841C17.7708 75.1207 29.0913 74.9258 39.9695 75.6375C48.3871 76.1882 56.0507 79.8506 64.4504 80.7523C75.5631 81.9452 86.7632 81.3434 97.9116 81.1818C103.081 81.1069 108.53 80.7935 113.607 82.0017C117.562 82.9428 120.983 85.281 124.813 86.5699C134.275 89.7535 144.73 89.7421 154.604 89.8887C161.904 89.9971 169.274 90.4097 176.43 91.9581C181.969 93.1564 186.913 95.8965 192.399 97.2681C198.306 98.7448 204.488 99.9451 210.555 100.548C214.209 100.911 217.886 100.627 221.526 101.173C226.126 101.862 230.582 102.994 235.231 103.437C238.775 103.775 242.343 104.009 245.89 104.296" stroke="white" stroke-width="3" stroke-linecap="round"/>
</svg>
