<svg width="32" height="32" viewBox="0 0 32 32" fill="none" xmlns="http://www.w3.org/2000/svg">
<path d="M21.7782 4.39999C19.3789 4.39999 17.2596 5.60762 15.996 7.44704C14.7324 5.60762 12.6131 4.39999 10.2138 4.39999C6.34301 4.39999 3.2 7.54301 3.2 11.4138C3.2 19.9631 15.996 27.6487 15.996 27.6487C15.996 27.6487 28.792 19.9631 28.792 11.4138C28.792 7.54301 25.649 4.39999 21.7782 4.39999Z" fill="url(#paint0_radial_1_36)"/>
<path opacity="0.5" d="M24.6813 5.02386C28.5201 11.142 24.9852 19.1714 20.7385 21.4507C16.052 23.9699 12.845 22.7863 6.20705 19.0195C9.98987 24.0339 15.996 27.6408 15.996 27.6408C15.996 27.6408 28.792 19.9552 28.792 11.4059C28.792 8.57475 27.1045 6.12752 24.6813 5.02386Z" fill="url(#paint1_radial_1_36)"/>
<path opacity="0.5" d="M21.7782 4.39999C19.3789 4.39999 17.2596 5.60762 15.996 7.44704C14.7324 5.60762 12.6131 4.39999 10.2138 4.39999C6.34301 4.39999 3.2 7.54301 3.2 11.4138C3.2 19.9631 15.996 27.6487 15.996 27.6487C15.996 27.6487 28.792 19.9631 28.792 11.4138C28.792 7.54301 25.649 4.39999 21.7782 4.39999Z" fill="url(#paint2_radial_1_36)"/>
<path opacity="0.5" d="M21.7782 4.39999C19.3789 4.39999 17.2596 5.60762 15.996 7.44704C14.7324 5.60762 12.6131 4.39999 10.2138 4.39999C6.34301 4.39999 3.2 7.54301 3.2 11.4138C3.2 19.9631 15.996 27.6487 15.996 27.6487C15.996 27.6487 28.792 19.9631 28.792 11.4138C28.792 7.54301 25.649 4.39999 21.7782 4.39999Z" fill="url(#paint3_radial_1_36)"/>
<path opacity="0.24" d="M14.2446 7.24697C14.9483 8.90245 13.3888 11.1498 10.7577 12.2614C8.12647 13.3731 5.43132 12.9412 4.72754 11.2937C4.02376 9.64622 5.58327 7.39093 8.21445 6.27927C10.8456 5.16762 13.5408 5.59149 14.2446 7.24697Z" fill="url(#paint4_radial_1_36)"/>
<path opacity="0.24" d="M22.8178 5.90347C23.8175 7.00713 23.2017 9.19044 21.4503 10.7739C19.6988 12.3575 17.4675 12.7493 16.4678 11.6457C15.4681 10.542 16.0839 8.3587 17.8354 6.7752C19.5869 5.19169 21.8182 4.79982 22.8178 5.90347Z" fill="url(#paint5_radial_1_36)"/>
<path opacity="0.32" d="M21.9061 6.26341C25.425 7.46304 28.784 12.6614 23.1058 19.1394C19.7068 23.0182 15.996 24.9776 11.2775 24.2098C13.8287 26.3371 16.004 27.6487 16.004 27.6487C16.004 27.6487 28.8 19.9631 28.8 11.4138C28.792 7.54301 25.649 4.39999 21.7782 4.39999C19.3789 4.39999 17.2596 5.60762 15.996 7.44704C15.996 7.44704 19.3309 5.38369 21.9061 6.26341Z" fill="url(#paint6_linear_1_36)"/>
<defs>
<radialGradient id="paint0_radial_1_36" cx="0" cy="0" r="1" gradientUnits="userSpaceOnUse" gradientTransform="translate(12.3358 10.8846) rotate(-29.408) scale(20.0227 15.8831)">
<stop offset="0.2479" stop-color="#FF0000"/>
<stop offset="0.8639" stop-color="#C20000"/>
</radialGradient>
<radialGradient id="paint1_radial_1_36" cx="0" cy="0" r="1" gradientUnits="userSpaceOnUse" gradientTransform="translate(12.831 9.65645) rotate(-29.408) scale(17.2388 13.6748)">
<stop offset="0.2479" stop-color="#FF0000"/>
<stop offset="1" stop-color="#C20000"/>
</radialGradient>
<radialGradient id="paint2_radial_1_36" cx="0" cy="0" r="1" gradientUnits="userSpaceOnUse" gradientTransform="translate(12.3358 10.8846) rotate(-29.408) scale(20.0227 15.8831)">
<stop stop-color="white" stop-opacity="0.25"/>
<stop offset="1" stop-color="white" stop-opacity="0"/>
</radialGradient>
<radialGradient id="paint3_radial_1_36" cx="0" cy="0" r="1" gradientUnits="userSpaceOnUse" gradientTransform="translate(19.5336 17.6819) rotate(-26.296) scale(14.6158 7.22227)">
<stop stop-color="#BD2719" stop-opacity="0.25"/>
<stop offset="1" stop-color="#BD2719" stop-opacity="0"/>
</radialGradient>
<radialGradient id="paint4_radial_1_36" cx="0" cy="0" r="1" gradientUnits="userSpaceOnUse" gradientTransform="translate(9.4845 9.27032) rotate(-21.6908) scale(5.19591 3.22762)">
<stop stop-color="white"/>
<stop offset="1" stop-color="white" stop-opacity="0"/>
</radialGradient>
<radialGradient id="paint5_radial_1_36" cx="0" cy="0" r="1" gradientUnits="userSpaceOnUse" gradientTransform="translate(19.6355 8.78285) rotate(-40.7634) scale(4.30192 2.67246)">
<stop stop-color="white"/>
<stop offset="1" stop-color="white" stop-opacity="0"/>
</radialGradient>
<linearGradient id="paint6_linear_1_36" x1="18.6366" y1="36.7795" x2="21.1158" y2="3.34994" gradientUnits="userSpaceOnUse">
<stop stop-color="#860805"/>
<stop offset="1" stop-color="#BD2719" stop-opacity="0"/>
</linearGradient>
</defs>
</svg>
