<?xml version="1.0" standalone="no"?>
<!DOCTYPE svg PUBLIC "-//W3C//DTD SVG 20010904//EN"
 "http://www.w3.org/TR/2001/REC-SVG-20010904/DTD/svg10.dtd">
<svg version="1.0" xmlns="http://www.w3.org/2000/svg"
 width="700.000000pt" height="700.000000pt" viewBox="0 0 700.000000 700.000000"
 preserveAspectRatio="xMidYMid meet">
<metadata>
Created by potrace 1.14, written by Peter Selinger 2001-2017
</metadata>
<g transform="translate(0.000000,700.000000) scale(0.100000,-0.100000)"
fill="#000000" stroke="none">
<path d="M2128 6035 c-2 -1 -30 -5 -63 -8 -459 -45 -900 -327 -1144 -732 -73
-121 -156 -318 -175 -415 -2 -14 -10 -50 -16 -80 -20 -99 -25 -153 -25 -295 0
-134 9 -275 19 -306 3 -7 7 -30 9 -49 3 -19 10 -57 17 -85 6 -27 13 -58 15
-68 23 -112 122 -372 204 -535 57 -113 215 -390 230 -402 4 -3 42 -55 84 -116
308 -441 781 -923 1350 -1377 219 -174 479 -364 672 -491 22 -14 45 -29 50
-34 6 -4 41 -27 78 -50 63 -40 70 -42 86 -28 10 9 21 16 25 16 7 0 395 260
421 282 5 5 51 38 100 74 549 400 1099 910 1446 1340 41 50 86 107 102 125 43
53 197 274 249 358 208 334 366 727 409 1016 32 218 32 457 1 615 -82 408
-307 750 -643 980 -198 136 -462 235 -687 257 -126 13 -306 8 -437 -11 -183
-27 -433 -128 -603 -245 -140 -96 -316 -267 -374 -363 -10 -15 -22 -28 -27
-28 -5 0 -25 21 -43 48 -56 76 -177 200 -265 271 -264 213 -587 329 -930 336
-73 1 -134 1 -135 0z"/>
</g>
</svg>
