<svg width="125" height="69" viewBox="0 0 125 69" fill="none" xmlns="http://www.w3.org/2000/svg">
<path d="M82.0375 11.7646C78.157 10.8239 73.2291 9.84547 69.3196 11.0423C63.0585 12.9589 71.875 20.1162 73.7195 21.5931C76.3052 23.6634 79.5251 25.3636 81.6982 27.9192C82.6062 28.9869 83.3307 30.7672 82.1908 32.0125C80.7915 33.5412 77.8855 33.4891 76.0726 33.5558C72.4172 33.6902 68.7494 33.4995 65.0949 33.4354" stroke="white" stroke-width="2" stroke-linecap="round"/>
<path d="M88.3417 8.02146C87.3813 17.5054 87.5537 27.0651 87.5537 36.5875" stroke="white" stroke-width="2" stroke-linecap="round"/>
<path d="M95.631 21.6149C94.3175 21.9959 86.2751 24.0047 87.1159 25.6864C87.8347 27.1239 89.1586 28.4405 90.1148 29.6922C91.8517 31.9658 93.5452 34.2805 95.237 36.5875" stroke="white" stroke-width="2" stroke-linecap="round"/>
<path d="M100.359 22.994V34.6174" stroke="white" stroke-width="2" stroke-linecap="round"/>
<path d="M100.162 16.2958C99.8889 16.2787 99.9176 16.2482 99.7682 16.0987" stroke="white" stroke-width="2" stroke-linecap="round"/>
<path d="M106.072 7.03643V33.8294" stroke="white" stroke-width="2" stroke-linecap="round"/>
<path d="M111.195 7.23344V33.6324" stroke="white" stroke-width="2" stroke-linecap="round"/>
<path d="M124 21.2209C122.229 21.1435 115.323 19.8722 115.66 23.2129C116.033 26.9104 120.921 27.5813 123.245 29.6266C125.348 31.4777 116.115 34.4204 114.347 34.4204" stroke="white" stroke-width="2" stroke-linecap="round"/>
<path d="M1 34.7255C1.1113 29.1235 1.3649 23.5564 1.85613 17.972C2.20821 13.9693 2.3114 9.18865 3.83407 5.35152C4.68859 3.19813 6.83048 0.547182 9.44317 1.2185C12.2394 1.93697 12.398 5.72229 12.5725 8.03798C12.7052 9.80026 12.6905 11.5713 12.6905 13.3371C12.6905 14.2804 12.6509 14.239 12.8086 13.3519C13.1803 11.261 13.2537 10.7323 13.8124 8.45128C14.3346 6.31877 14.915 1.6623 17.7092 1.04137C20.3372 0.457361 21.0102 6.22688 21.237 7.62468C22.8281 17.4278 21.9898 27.7437 21.9898 37.6481" stroke="white" stroke-width="2" stroke-linecap="round"/>
<path d="M28.4759 24.064C28.6645 28.0244 28.8236 32.0635 30.1903 35.8429C30.819 37.5818 31.7993 40.5154 34.3351 40.4819C36.2802 40.4562 37.5288 38.2311 38.1975 36.8615C39.2355 34.7358 39.4855 32.3218 39.5489 29.9938C39.556 29.7314 39.5831 29.4589 39.5085 29.2072C39.4829 29.1207 39.4056 29.3609 39.3875 29.4492C39.2119 30.3065 38.6039 34.491 38.5807 34.6328C37.5811 40.7466 36.3826 46.7913 34.4964 52.7046C32.8388 57.9013 30.3298 66.5683 23.6957 67.3476C19.8445 67.8 16.8393 65.2772 15.1842 62.0228C14.284 60.2529 13.7362 57.492 13.6715 55.488C13.5291 51.0721 13.9846 55.1687 14.3169 51.6558" stroke="white" stroke-width="2" stroke-linecap="round"/>
</svg>
