<svg width="24" height="24" viewBox="0 0 24 24" fill="none" xmlns="http://www.w3.org/2000/svg">
<g clip-path="url(#clip0_1_21)">
<path d="M0.48 4.32001C0.3527 4.32002 0.230617 4.3706 0.140603 4.46061C0.0505881 4.55063 1.27281e-05 4.67271 0 4.80001L0 11.76C0 14.7995 2.48049 17.28 5.52 17.28C8.2669 17.28 10.4567 15.2195 10.8722 12.5859C11.1681 12.9959 11.4494 13.4147 11.7834 13.7897C11.1865 16.3189 10.4421 19.4814 10.0819 21.0103C10.0654 21.0807 10.065 21.154 10.0807 21.2245C10.0965 21.2951 10.128 21.3612 10.1729 21.4179C10.2178 21.4746 10.2749 21.5205 10.34 21.552C10.4051 21.5835 10.4764 21.5999 10.5487 21.6H13.5075C13.6158 21.6001 13.721 21.5636 13.8059 21.4964C13.8909 21.4291 13.9506 21.3351 13.9753 21.2297C14.3025 19.8409 14.7175 18.0786 15.1078 16.4222C15.9963 16.8874 17.0242 17.28 18.24 17.28C21.4116 17.28 24 14.6916 24 11.52C24 8.34843 21.4116 5.76001 18.24 5.76001C16.0088 5.76001 14.0782 7.07352 13.1278 9.01782C12.1202 7.27347 11.3662 5.43421 11.0916 4.64251C11.0588 4.54827 10.9975 4.46657 10.9162 4.40877C10.8349 4.35097 10.7376 4.31995 10.6378 4.32001H7.68C7.5527 4.32002 7.43062 4.3706 7.3406 4.46061C7.25059 4.55063 7.20001 4.67271 7.2 4.80001V11.76C7.2 12.6905 6.45047 13.44 5.52 13.44C4.58953 13.44 3.84 12.6905 3.84 11.76V4.80001C3.83999 4.67271 3.78941 4.55063 3.6994 4.46061C3.60938 4.3706 3.4873 4.32002 3.36 4.32001H0.48ZM0.96 5.28001H2.88V11.76C2.88 13.2113 4.06871 14.4 5.52 14.4C6.97129 14.4 8.16 13.2113 8.16 11.76V5.28001H10.3116C10.6912 6.34342 11.4936 8.41808 12.7519 10.3425C12.8023 10.4198 12.8739 10.4809 12.9582 10.5185C13.0425 10.5562 13.1358 10.5687 13.227 10.5546C13.3182 10.5406 13.4034 10.5006 13.4725 10.4393C13.5415 10.3781 13.5914 10.2983 13.6163 10.2094C14.1938 8.13826 16.0755 6.72001 18.24 6.72001C20.8908 6.72001 23.04 8.86919 23.04 11.52C23.04 14.1708 20.8908 16.32 18.24 16.32C16.9995 16.32 15.9069 15.8689 15.0272 15.3281C14.9625 15.2885 14.8892 15.2647 14.8135 15.2588C14.7378 15.2529 14.6618 15.2651 14.5917 15.2942C14.5216 15.3234 14.4595 15.3688 14.4103 15.4267C14.3612 15.4846 14.3265 15.5533 14.3091 15.6272C13.909 17.3244 13.4818 19.1373 13.1278 20.64H11.1553C11.5528 18.9527 12.2115 16.155 12.7688 13.7944C12.7869 13.7175 12.7858 13.6373 12.7655 13.5609C12.7452 13.4845 12.7064 13.4143 12.6525 13.3566C12.0324 12.6904 11.4673 11.9204 10.9659 11.1234C10.9104 11.0355 10.8278 10.968 10.7306 10.931C10.6333 10.8941 10.5267 10.8897 10.4268 10.9186C10.3269 10.9474 10.239 11.008 10.1765 11.0911C10.1139 11.1742 10.0801 11.2754 10.08 11.3794V11.76C10.08 14.2789 8.03889 16.32 5.52 16.32C3.00111 16.32 0.96 14.2789 0.96 11.76V5.28001ZM18.24 8.64001C16.9282 8.64001 15.7771 9.53038 15.4509 10.8C15.4166 10.9336 15.263 11.5856 15.0225 12.6038C15.0016 12.6917 15.0061 12.7838 15.0353 12.8694C15.0645 12.955 15.1172 13.0306 15.1875 13.0875C15.9146 13.6767 16.9786 14.4 18.24 14.4C19.8237 14.4 21.12 13.1037 21.12 11.52C21.12 9.93631 19.8237 8.64001 18.24 8.64001ZM18.24 9.60001C19.303 9.60001 20.16 10.457 20.16 11.52C20.16 12.583 19.303 13.44 18.24 13.44C17.457 13.44 16.6687 12.9771 16.0341 12.4997C16.208 11.7646 16.3721 11.0725 16.3809 11.0381C16.5991 10.189 17.3602 9.60001 18.24 9.60001Z" fill="white"/>
</g>
<defs>
<clipPath id="clip0_1_21">
<rect width="24" height="24" fill="white"/>
</clipPath>
</defs>
</svg>
